HIERARCHY
ROOT Hips
{
	OFFSET -4.445156 63.760666 -31.951174
	CHANNELS 6 Xposition Yposition Zposition Xrotation Yrotation Zrotation
	JOINT Chest
	{
		OFFSET 0.438396 13.486336 2.020115
		CHANNELS 3 Xrotation Yrotation Zrotation
		JOINT Chest2
		{
			OFFSET 0.061832 17.570694 12.261053
			CHANNELS 3 Xrotation Yrotation Zrotation
			JOINT Chest3
			{
				OFFSET 1.460167 13.233139 6.750698
				CHANNELS 3 Xrotation Yrotation Zrotation
				JOINT Neck
				{
					OFFSET 0.559034 15.621788 7.366368
					CHANNELS 3 Xrotation Yrotation Zrotation
					JOINT Head
					{
						OFFSET -0.480398 9.194641 5.005536
						CHANNELS 3 Xrotation Yrotation Zrotation
						End Site
						{
							OFFSET -0.477765 9.229431 4.941356
						}
					}
				}
				JOINT LeftCollar
				{
					OFFSET 4.933858 10.834518 7.750783
					CHANNELS 3 Xrotation Yrotation Zrotation
					JOINT LeftUpArm
					{
						OFFSET 14.902557 -1.680435 -9.142731
						CHANNELS 3 Xrotation Yrotation Zrotation
						JOINT LeftLowArm
						{
							OFFSET 4.731504 -30.720131 -13.176326
							CHANNELS 3 Xrotation Yrotation Zrotation
							JOINT LeftHand
							{
								OFFSET 0.619072 -29.637348 -4.710871
								CHANNELS 3 Xrotation Yrotation Zrotation
								End Site
								{
									OFFSET 0.135309 -6.477413 -1.029598
								}
							}
						}
					}
				}
				JOINT RightCollar
				{
					OFFSET -3.424399 10.673531 8.726851
					CHANNELS 3 Xrotation Yrotation Zrotation
					JOINT RightUpArm
					{
						OFFSET -15.852509 -4.150513 -6.321989
						CHANNELS 3 Xrotation Yrotation Zrotation
						JOINT RightLowArm
						{
							OFFSET -5.700542 -32.603745 -6.650889
							CHANNELS 3 Xrotation Yrotation Zrotation
							JOINT RightHand
							{
								OFFSET -4.719746 -29.633686 -0.723785
								CHANNELS 3 Xrotation Yrotation Zrotation
								End Site
								{
									OFFSET -1.031548 -6.476734 -0.158192
								}
							}
						}
					}
				}
			}
		}
	}
	JOINT LeftUpLeg
	{
		OFFSET 9.919529 -0.520859 1.323174
		CHANNELS 3 Xrotation Yrotation Zrotation
		JOINT LeftLowLeg
		{
			OFFSET -0.814194 -14.432930 45.111156
			CHANNELS 3 Xrotation Yrotation Zrotation
			JOINT LeftFoot
			{
				OFFSET 2.443799 -30.065237 -33.025429
				CHANNELS 3 Xrotation Yrotation Zrotation
				JOINT LeftToe
				{
					OFFSET 6.001766 -22.821201 1.652689
					CHANNELS 3 Xrotation Yrotation Zrotation
					End Site
					{
						OFFSET 3.620316 -16.821163 16.232706
					}
				}
			}
		}
	}
	JOINT RightUpLeg
	{
		OFFSET -9.919539 0.520660 -1.323202
		CHANNELS 3 Xrotation Yrotation Zrotation
		JOINT RightLowLeg
		{
			OFFSET -14.146209 -44.928677 5.031046
			CHANNELS 3 Xrotation Yrotation Zrotation
			JOINT RightFoot
			{
				OFFSET 19.410395 7.268015 -39.635757
				CHANNELS 3 Xrotation Yrotation Zrotation
				JOINT RightToe
				{
					OFFSET 14.360281 -16.348166 -9.277756
					CHANNELS 3 Xrotation Yrotation Zrotation
					End Site
					{
						OFFSET 7.592446 -22.045511 3.988266
					}
				}
			}
		}
	}
}
MOTION
Frames: 8
Frame Time: 0.033333
0.783487 105.997070 -1.111731 -2.137002 5.629208 1.105698 -27.032991 -0.002256 2.086264 -2.710854 -3.612554 2.672287 9.513890 -5.767088 -9.351875 1.737179 1.963826 0.234535 -0.000000 -0.000001 -0.000000 1.533933 8.184092 -0.331422 -3.256972 -10.595267 -2.169051 -6.360781 -6.070552 -0.758479 -0.000000 0.000002 0.000001 1.484767 -7.296009 -4.694066 7.855749 3.745780 2.460393 -7.991452 2.226599 17.269775 -0.000000 0.000003 0.000002 77.714664 2.592610 1.906952 -109.691889 16.434024 11.143222 -4.144608 -8.373101 -28.491192 -0.000003 -0.000001 -0.000000 13.022012 0.354768 14.013193 -76.108081 40.517287 -35.090401 -0.555234 -0.308648 -6.308598 -0.000001 0.000004 -0.000002 
0.801303 105.997757 -1.112970 -2.009288 5.721880 0.950433 -27.202641 0.065693 2.030452 -1.444162 -3.790762 2.817676 8.684972 -5.467463 -9.327060 1.668564 1.589025 0.503566 -0.000002 -0.000000 -0.000000 1.597571 7.443454 -0.388288 -3.570751 -10.658295 -2.364010 -6.613438 -5.659650 -0.819281 -0.000002 0.000004 -0.000001 1.467338 -7.248099 -4.685403 7.349464 4.036697 2.869498 -8.004773 2.115463 16.685380 0.000001 0.000003 0.000001 77.745789 2.572661 2.012105 -110.398485 16.412914 11.209210 -3.561926 -9.489958 -27.903054 0.000000 -0.000000 0.000000 12.312884 0.468052 13.969888 -75.971914 40.407775 -34.877231 -1.120602 -0.258771 -7.288014 -0.000002 0.000006 -0.000001 
0.821935 105.995377 -1.113787 -1.689483 5.760188 0.733212 -26.972576 0.071739 2.002314 -2.615639 -3.716207 2.783005 9.688049 -5.891789 -9.351444 1.164004 1.518434 0.702218 0.000002 -0.000000 -0.000000 1.601093 7.243925 -0.003351 -3.840260 -10.676075 -2.805101 -6.613025 -5.624813 -0.813075 -0.000005 -0.000001 0.000000 1.511359 -6.772665 -4.821717 7.176908 4.058257 3.472638 -8.300316 2.193342 16.120402 -0.000001 0.000001 0.000000 78.051666 2.750521 2.130311 -111.034574 16.512191 11.204344 -3.197959 -10.097090 -27.534197 -0.000003 -0.000001 0.000002 11.998842 0.522567 13.990364 -75.850050 40.181200 -34.716615 -1.457802 -0.272496 -7.193682 -0.000002 0.000006 -0.000003 
0.862447 105.992111 -1.115011 -1.260917 6.103073 0.378602 -26.978525 0.040156 2.049768 -3.245586 -3.920966 2.895106 10.189311 -5.930098 -9.439468 1.264252 1.090252 0.858850 -0.000000 0.000000 -0.000000 1.690451 6.620903 0.320617 -4.064349 -10.449756 -3.215928 -6.341201 -5.347710 -1.038982 -0.000005 0.000002 -0.000000 1.301237 -7.534406 -5.328093 7.139896 3.940547 3.694904 -8.237719 2.149621 15.984389 -0.000001 0.000001 -0.000000 78.013444 3.073574 2.248428 -111.181280 16.569726 11.061584 -3.172091 -10.029580 -27.391688 0.000000 -0.000001 0.000002 10.808690 0.615066 13.887022 -74.445155 39.479573 -34.638833 -1.999010 -0.126869 -7.019998 -0.000005 0.000002 -0.000003 
0.923602 105.982788 -1.108341 -1.213867 6.329014 0.112115 -26.178628 0.003278 2.022221 -4.146800 -3.993352 2.925612 10.581879 -6.258114 -9.589148 1.149798 0.754107 1.064521 -0.000000 0.000000 0.000000 1.796801 6.275478 0.719596 -4.339670 -10.531415 -3.731108 -6.244270 -5.432436 -0.960732 0.000001 0.000004 -0.000001 1.382478 -7.194038 -5.565755 7.321206 3.979245 4.035382 -8.955543 2.354655 15.632100 -0.000001 0.000003 0.000001 79.082000 3.444832 2.359634 -111.831049 16.854941 10.903513 -3.493145 -9.392073 -27.549056 0.000000 -0.000001 -0.000000 9.327118 0.765327 13.553300 -72.184656 38.644363 -34.661680 -2.347074 -0.026112 -7.149575 -0.000001 0.000004 0.000002 
0.987741 105.969406 -1.097980 -0.774642 6.305445 -0.272607 -26.386769 -0.037590 2.087684 -4.184188 -4.271915 3.063016 10.699910 -6.393620 -9.754125 1.050934 0.657272 1.153602 -0.000000 0.000000 -0.000000 1.703936 6.701306 1.027564 -4.345696 -10.437997 -3.849604 -6.594103 -5.557846 -0.916366 -0.000005 0.000004 0.000001 1.390378 -7.456208 -5.497032 7.251702 3.971011 4.019671 -10.091375 2.542331 15.462524 -0.000002 0.000001 -0.000001 79.123391 3.730442 2.409694 -112.160401 16.895530 11.016731 -3.541390 -9.321607 -27.525746 0.000002 -0.000001 -0.000001 8.213244 0.825621 13.356241 -70.607422 37.876896 -34.646281 -1.919564 -0.207896 -7.297362 -0.000001 0.000001 -0.000000 
1.069193 105.956085 -1.101448 -0.175385 5.995891 -0.539239 -26.054750 -0.068447 2.111596 -4.795098 -4.210427 3.005186 11.220922 -6.489276 -9.699926 0.757864 0.172151 1.327694 0.000003 0.000000 -0.000001 1.921720 6.086210 1.131804 -4.375516 -10.316681 -4.171282 -7.032098 -5.918233 -0.406738 -0.000000 0.000000 0.000001 1.442143 -7.461142 -5.630266 7.173930 4.033331 4.198450 -10.593208 2.876174 15.114799 -0.000002 -0.000002 -0.000001 79.251839 3.845869 2.359378 -112.494472 16.936641 10.934718 -3.528222 -9.151840 -27.272674 -0.000002 -0.000001 -0.000001 6.122644 0.931918 12.369234 -68.397883 36.287982 -34.368419 -1.070694 -0.372385 -7.311628 -0.000003 0.000004 -0.000003 
1.171571 105.939911 -1.112759 -0.377842 5.339738 -0.643322 -25.477929 -0.018676 2.044066 -4.142026 -4.209008 2.968857 10.443688 -6.400753 -9.585943 1.539635 -0.029057 1.400197 -0.000000 0.000001 -0.000000 1.867588 5.968302 1.323350 -3.962547 -9.731887 -3.992007 -7.314606 -5.880753 -0.379919 -0.000001 0.000004 0.000001 1.469473 -6.736450 -5.584497 7.127548 3.623029 4.272761 -10.774603 3.179305 14.704076 -0.000000 -0.000002 0.000000 79.310429 3.562794 2.088315 -112.335998 16.622245 10.901396 -3.543147 -8.998232 -27.172262 0.000002 -0.000001 -0.000000 3.622197 1.010101 10.772285 -64.291048 33.717277 -33.700136 -0.595393 -0.493994 -7.899051 -0.000001 0.000003 -0.000002 
